<?xml version="1.0" standalone="no"?>
<!DOCTYPE svg PUBLIC "-//W3C//DTD SVG 20010904//EN"
 "http://www.w3.org/TR/2001/REC-SVG-20010904/DTD/svg10.dtd">
<svg version="1.0" xmlns="http://www.w3.org/2000/svg"
 width="3000.000000pt" height="3000.000000pt" viewBox="0 0 3000.000000 3000.000000"
 preserveAspectRatio="xMidYMid meet">
<metadata>
Created by potrace 1.16, written by Peter Selinger 2001-2019
</metadata>
<g transform="translate(0.000000,3000.000000) scale(0.100000,-0.100000)"
fill="#007f46" stroke="none">
<path d="M14550 25744 c-30 -2 -134 -8 -230 -14 -3003 -183 -5795 -1633 -7705
-4000 -1530 -1896 -2365 -4273 -2365 -6729 0 -1833 449 -3589 1327 -5189 858
-1565 2129 -2918 3648 -3887 1425 -908 3072 -1473 4755 -1629 368 -35 516 -41
1015 -41 500 0 626 5 1015 41 1092 99 2171 373 3205 811 322 137 400 184 506
301 146 164 232 407 214 607 -20 220 -106 398 -263 547 -212 200 -527 272
-804 183 -40 -12 -150 -57 -245 -98 -831 -364 -1712 -597 -2633 -696 -379 -41
-485 -46 -1000 -46 -527 1 -662 8 -1075 56 -1711 199 -3330 885 -4667 1976
-830 677 -1544 1505 -2083 2413 -321 541 -598 1144 -794 1730 -402 1199 -549
2471 -435 3760 168 1913 940 3703 2229 5175 194 220 604 631 820 820 1205
1052 2571 1741 4107 2069 585 125 1124 184 1768 193 626 9 1060 -23 1640 -118
2212 -364 4249 -1575 5653 -3362 951 -1209 1578 -2627 1827 -4127 80 -482 109
-823 117 -1350 12 -857 -67 -1559 -267 -2360 -125 -500 -345 -1143 -461 -1344
-138 -240 -326 -419 -564 -539 -179 -89 -328 -126 -541 -134 -241 -9 -420 28
-629 132 -378 186 -625 506 -722 935 -16 70 -18 368 -23 4230 -5 3982 -6 4158
-24 4215 -117 388 -453 632 -841 612 -361 -18 -659 -262 -757 -622 -21 -77
-22 -101 -26 -627 l-3 -548 -137 134 c-804 787 -1817 1325 -2912 1546 -449 91
-693 114 -1190 114 -411 0 -524 -7 -855 -55 -686 -98 -1411 -342 -2002 -675
-1513 -851 -2576 -2298 -2913 -3964 -91 -449 -114 -693 -114 -1190 0 -411 7
-524 55 -855 98 -686 342 -1411 675 -2002 850 -1513 2298 -2576 3964 -2913
449 -91 693 -114 1190 -114 497 0 741 23 1190 114 1177 238 2258 842 3091
1727 67 70 124 129 127 130 4 2 22 -39 41 -90 87 -233 274 -555 456 -782 107
-134 336 -361 467 -463 574 -446 1221 -660 1933 -639 301 9 546 51 830 144
452 147 832 381 1176 723 307 305 516 630 692 1075 411 1040 641 2070 729
3265 17 229 17 1124 0 1355 -51 696 -138 1265 -286 1871 -512 2084 -1613 3936
-3211 5400 -1599 1465 -3636 2418 -5785 2708 -497 67 -797 87 -1370 91 -261 1
-500 1 -530 -1z m940 -6528 c954 -120 1791 -519 2464 -1176 715 -698 1135
-1550 1263 -2560 24 -192 24 -768 0 -960 -89 -702 -313 -1311 -690 -1875 -330
-495 -784 -934 -1287 -1247 -540 -335 -1102 -532 -1760 -615 -192 -24 -768
-24 -960 0 -702 89 -1311 313 -1875 690 -495 330 -934 784 -1247 1287 -335
540 -532 1102 -615 1760 -24 192 -24 768 0 960 89 702 313 1311 690 1875 330
495 784 934 1287 1247 593 368 1199 566 1940 632 109 9 670 -3 790 -18z"/>
</g>
</svg>
